<?xml version='1.0' encoding='utf-8'?>
<svg xmlns="http://www.w3.org/2000/svg" baseProfile="basic" version="1.1" viewBox="0 0 1920 1150"> <g fill="#1EA8B0"> <rect transform="matrix(.3511 .9363 -.9363 .3511 1440.3 -547.84)" x="1104.6" y="723.5" width="21.7" height="83.4"/> <ellipse transform="matrix(.3511 .9363 -.9363 .3511 1451.9 -593.92)" cx="1154.5" cy="750.6" rx="28.6" ry="19.6"/> </g> <g fill="#1A8E95"> <rect transform="matrix(.7722 .6353 -.6353 .7722 687.51 -512.82)" x="1052.1" y="675.8" width="13.8" height="53.3"/> <ellipse transform="matrix(.7722 .6353 -.6353 .7722 678.3 -528.27)" cx="1075.9" cy="681.9" rx="18.2" ry="12.5"/> </g> <g fill="#1A8E95"> <rect transform="matrix(.9363 -.3511 .3511 .9363 -180.53 360.33)" x="896.5" y="651.4" width="13.8" height="53.3"/> <ellipse transform="matrix(.9363 -.3511 .3511 .9363 -172.37 355.46)" cx="894" cy="653.1" rx="18.2" ry="12.5"/> </g> <g fill="#1A8E95"> <rect transform="matrix(.1641 -.9864 .9864 .1641 -117.32 1462.6)" x="797.5" y="773.9" width="13.8" height="53.3"/> <ellipse transform="matrix(.1641 -.9864 .9864 .1641 -134.97 1433.1)" cx="778.1" cy="796.2" rx="18.2" ry="12.5"/> </g> <g fill="#1A8E95"> <rect transform="matrix(-.7722 -.6353 .6353 -.7722 923.89 2226.3)" x="854.1" y="920.9" width="13.8" height="53.3"/> <ellipse transform="matrix(-.7722 -.6353 .6353 -.7722 880.81 2252)" cx="844.1" cy="968.1" rx="18.2" ry="12.5"/> </g> <g fill="#1A8E95"> <rect transform="matrix(-.9363 .3511 -.3511 -.9363 2309.8 1525.2)" x="1009.7" y="945.4" width="13.8" height="53.3"/> <ellipse transform="matrix(-.9363 .3511 -.3511 -.9363 2336.7 1570.2)" cx="1026" cy="996.9" rx="18.2" ry="12.5"/> </g> <g fill="#1A8E95"> <rect transform="matrix(-.1641 .9864 -.9864 -.1641 2136.6 -111.63)" x="1108.7" y="822.8" width="13.8" height="53.3"/> <ellipse transform="matrix(-.1641 .9864 -.9864 -.1641 2171.6 -132.47)" cx="1141.9" cy="853.8" rx="18.2" ry="12.5"/> </g> <g fill="#1EA8B0"> <rect transform="matrix(.9864 .1641 -.1641 .9864 121.77 -152.85)" x="975.1" y="618.8" width="21.7" height="83.4"/> <ellipse transform="matrix(.9864 .1641 -.1641 .9864 115.11 -154.53)" cx="992.8" cy="619.4" rx="28.6" ry="19.6"/> </g> <g fill="#1EA8B0"> <rect transform="matrix(.6353 -.7722 .7722 .6353 -253.39 904.02)" x="819.7" y="678.6" width="21.7" height="83.4"/> <ellipse transform="matrix(.6353 -.7722 .7722 .6353 -244.67 869.48)" cx="798.3" cy="693.8" rx="28.6" ry="19.6"/> </g> <g fill="#1EA8B0"> <rect transform="matrix(-.3511 -.9363 .9363 -.3511 258.64 1948.8)" x="793.8" y="843.1" width="21.7" height="83.4"/> <ellipse transform="matrix(-.3511 -.9363 .9363 -.3511 192.15 1932)" cx="765.5" cy="899.4" rx="28.6" ry="19.6"/> </g> <g fill="#1EA8B0"> <rect transform="matrix(-.9864 -.1641 .1641 -.9864 1693.1 2118.8)" x="923.2" y="947.8" width="21.7" height="83.4"/> <ellipse transform="matrix(-.9864 -.1641 .1641 -.9864 1672.7 2199.4)" cx="927.2" cy="1030.6" rx="28.6" ry="19.6"/> </g> <g fill="#1EA8B0"> <rect transform="matrix(-.6353 .7722 -.7722 -.6353 2499.6 679.05)" x="1078.6" y="888" width="21.7" height="83.4"/> <ellipse transform="matrix(-.6353 .7722 -.7722 -.6353 2572.7 697.51)" cx="1121.7" cy="956.2" rx="28.6" ry="19.6"/> </g> <circle cx="958.6" cy="821.1" r="151.6" fill="#5AC7D9"/> <circle cx="983.9" cy="774.2" r="21.5" fill="#1D9DA3"/> <ellipse transform="matrix(.3511 .9363 -.9363 .3511 1446.3 -379.21)" cx="996.8" cy="853.9" rx="18.3" ry="15.9" fill="#1D9DA3"/> <ellipse transform="matrix(.3511 .9363 -.9363 .3511 1471.1 -458.19)" cx="1066.1" cy="832.3" rx="14.1" ry="12.4" fill="#1D9DA3"/> <ellipse transform="matrix(.3511 .9363 -.9363 .3511 1387.1 -481.23)" cx="1040.7" cy="760.1" rx="20.2" ry="16.3" fill="#1D9DA3"/> <circle cx="901.9" cy="743.4" r="23" fill="#1D9DA3"/> <circle cx="995.8" cy="696.4" r="11" fill="#1D9DA3"/> <circle cx="961.4" cy="714.1" r="23.4" fill="#1D9DA3"/> <circle cx="940.1" cy="828" r="16.4" fill="#1D9DA3"/> <circle cx="952.2" cy="906.8" r="17" fill="#1D9DA3"/> <circle cx="1035.4" cy="893.8" r="22.1" fill="#1D9DA3"/> <circle cx="1022.8" cy="811.5" r="12.2" fill="#1D9DA3"/> <ellipse transform="matrix(.3511 .9363 -.9363 .3511 1445.8 -493.31)" cx="1078.8" cy="796.5" rx="15" ry="10.7" fill="#1D9DA3"/> <ellipse transform="matrix(.3511 .9363 -.9363 .3511 1407.1 -513.63)" cx="1074.1" cy="758.4" rx="10.1" ry="5.5" fill="#1D9DA3"/> <ellipse transform="matrix(.3511 .9363 -.9363 .3511 1344.5 -495.98)" cx="1030.1" cy="722" rx="11.2" ry="7.4" fill="#1D9DA3"/> <ellipse transform="matrix(.3511 .9363 -.9363 .3511 1339.3 -459.6)" cx="1001.3" cy="736.5" rx="5.5" ry="6.1" fill="#1D9DA3"/> <ellipse transform="matrix(.3511 .9363 -.9363 .3511 1336.9 -351.45)" cx="922" cy="788.8" rx="8" ry="6" fill="#1D9DA3"/> <ellipse transform="matrix(.3511 .9363 -.9363 .3511 1315.8 -317)" cx="886.6" cy="790.8" rx="10.6" ry="10.8" fill="#1D9DA3"/> <ellipse transform="matrix(.3511 .9363 -.9363 .3511 1377.6 -270.82)" cx="884.2" cy="858.5" rx="16.9" ry="13.1" fill="#1D9DA3"/> <ellipse transform="matrix(.3511 .9363 -.9363 .3511 1419.2 -301.5)" cx="927.1" cy="873.2" rx="6.4" ry="9" fill="#1D9DA3"/> <ellipse transform="matrix(.3511 .9363 -.9363 .3511 1520.8 -323.35)" cx="993.7" cy="935.6" rx="12" ry="15.6" fill="#1D9DA3"/> <ellipse transform="matrix(.3511 .9363 -.9363 .3511 1460.1 -258.92)" cx="916.9" cy="924" rx="16.8" ry="7.6" fill="#1D9DA3"/> <ellipse transform="matrix(.3511 .9363 -.9363 .3511 1516.9 -447.47)" cx="1081.3" cy="870.7" rx="11.5" ry="13.1" fill="#1D9DA3"/> <ellipse transform="matrix(.3511 .9363 -.9363 .3511 1542.1 -361.67)" cx="1032" cy="931.8" rx="5.6" ry="5.7" fill="#1D9DA3"/> <ellipse transform="matrix(.3511 .9363 -.9363 .3511 1486.3 -340.61)" cx="988.9" cy="902" rx="5.9" ry="5.5" fill="#1D9DA3"/> <ellipse transform="matrix(.3511 .9363 -.9363 .3511 1441 -340.03)" cx="965.8" cy="869.6" rx="10.3" ry="8.8" fill="#1D9DA3"/> <ellipse transform="matrix(.3511 .9363 -.9363 .3511 1406.5 -386.81)" cx="982.3" cy="821.3" rx="10.6" ry="7.7" fill="#1D9DA3"/> <ellipse transform="matrix(.3511 .9363 -.9363 .3511 1275.4 -292.69)" cx="848.9" cy="773.9" rx="15" ry="9.8" fill="#1D9DA3"/> <ellipse transform="matrix(.3511 .9363 -.9363 .3511 1339.5 -258.7)" cx="856.4" cy="837.1" rx="7.4" ry="11" fill="#1D9DA3"/> <ellipse transform="matrix(.3511 .9363 -.9363 .3511 1308.5 -256.93)" cx="839.6" cy="815.6" rx="11.9" ry="8.2" fill="#1D9DA3"/> <ellipse transform="matrix(.3511 .9363 -.9363 .3511 1372.1 -227.39)" cx="850.1" cy="876.3" rx="12.2" ry="8.6" fill="#1D9DA3"/> <ellipse transform="matrix(.3511 .9363 -.9363 .3511 1427.4 -227.64)" cx="877.9" cy="916" rx="12.3" ry="5.9" fill="#1D9DA3"/> <circle cx="894.8" cy="896.3" r="7.4" fill="#1D9DA3"/> <circle cx="912.2" cy="836.3" r="9.3" fill="#1D9DA3"/> <circle cx="890.4" cy="824.3" r="7.4" fill="#1D9DA3"/> <circle cx="859" cy="734.9" r="6.9" fill="#1D9DA3"/> <circle cx="914" cy="702.5" r="10.4" fill="#1D9DA3"/> <circle cx="939.2" cy="765.6" r="8.9" fill="#1D9DA3"/> <circle cx="1035.8" cy="851.3" r="11.3" fill="#1D9DA3"/> <circle cx="957.3" cy="953.7" r="6.6" fill="#1D9DA3"/> <circle cx="934.3" cy="955.3" r="4.8" fill="#1D9DA3"/> <circle cx="946.1" cy="939.1" r="7.1" fill="#1D9DA3"/> <circle cx="893.6" cy="941" r="7" fill="#1D9DA3"/> <circle cx="846.9" cy="910" r="6.2" fill="#1D9DA3"/> <circle cx="825.1" cy="851.7" r="6.2" fill="#1D9DA3"/> <circle cx="819.8" cy="796.1" r="6.7" fill="#1D9DA3"/> <ellipse transform="matrix(-.3511 -.9363 .9363 -.3511 698.24 2153.8)" cx="1095.4" cy="834.9" rx="8.4" ry="6.9" fill="#1D9DA3"/> <g fill="#B13981"> <rect transform="matrix(.9363 -.3511 .3511 .9363 -137.36 581.64)" x="1524.4" y="627.9" width="21.7" height="83.4"/> <ellipse transform="matrix(.9363 -.3511 .3511 .9363 -124.58 574.01)" cx="1520.6" cy="630.5" rx="28.6" ry="19.6"/> </g> <g fill="#962F63"> <rect transform="matrix(.6353 -.7722 .7722 .6353 -23.707 1401.8)" x="1465.5" y="699.4" width="13.8" height="53.3"/> <ellipse transform="matrix(.6353 -.7722 .7722 .6353 -18.138 1379.8)" cx="1451.9" cy="709.1" rx="18.2" ry="12.5"/> </g> <g fill="#962F63"> <rect transform="matrix(-.3511 -.9363 .9363 -.3511 1130.9 2547)" x="1441.1" y="855" width="13.8" height="53.3"/> <ellipse transform="matrix(-.3511 -.9363 .9363 -.3511 1088.4 2536.3)" cx="1423.1" cy="891" rx="18.2" ry="12.5"/> </g> <g fill="#962F63"> <rect transform="matrix(-.9864 -.1641 .1641 -.9864 2958.9 2205.7)" x="1563.6" y="954" width="13.8" height="53.3"/> <ellipse transform="matrix(-.9864 -.1641 .1641 -.9864 2945.9 2257.2)" cx="1566.2" cy="1006.9" rx="18.2" ry="12.5"/> </g> <g fill="#962F63"> <rect transform="matrix(-.6353 .7722 -.7722 -.6353 3522.3 184.71)" x="1710.6" y="897.3" width="13.8" height="53.3"/> <ellipse transform="matrix(-.6353 .7722 -.7722 -.6353 3569 196.51)" cx="1738.1" cy="940.9" rx="18.2" ry="12.5"/> </g> <g fill="#962F63"> <rect transform="matrix(.3511 .9363 -.9363 .3511 1849.8 -1132.5)" x="1735.1" y="741.7" width="13.8" height="53.3"/> <ellipse transform="matrix(.3511 .9363 -.9363 .3511 1857.3 -1161.9)" cx="1766.9" cy="759" rx="18.2" ry="12.5"/> </g> <g fill="#962F63"> <rect transform="matrix(.9864 .1641 -.1641 .9864 131.81 -256.7)" x="1612.5" y="642.7" width="13.8" height="53.3"/> <ellipse transform="matrix(.9864 .1641 -.1641 .9864 127.56 -257.77)" cx="1623.8" cy="643.1" rx="18.2" ry="12.5"/> </g> <g fill="#B13981"> <rect transform="matrix(.1641 -.9864 .9864 .1641 407.53 2079.1)" x="1419.7" y="757.4" width="21.7" height="83.4"/> <ellipse transform="matrix(.1641 -.9864 .9864 .1641 379.88 2032.8)" cx="1389.4" cy="792.2" rx="28.6" ry="19.6"/> </g> <g fill="#B13981"> <rect transform="matrix(-.7722 -.6353 .6353 -.7722 2034.8 2638.4)" x="1479.5" y="912.8" width="21.7" height="83.4"/> <ellipse transform="matrix(-.7722 -.6353 .6353 -.7722 1967.3 2678.7)" cx="1463.8" cy="986.7" rx="28.6" ry="19.6"/> </g> <g fill="#B13981"> <rect transform="matrix(-.9363 .3511 -.3511 -.9363 3548.4 1317.4)" x="1644" y="938.7" width="21.7" height="83.4"/> <ellipse transform="matrix(-.9363 .3511 -.3511 -.9363 3590.5 1387.9)" cx="1669.4" cy="1019.5" rx="28.6" ry="19.6"/> </g> <g fill="#B13981"> <rect transform="matrix(-.1641 .9864 -.9864 -.1641 2887.6 -745.04)" x="1748.6" y="809.2" width="21.7" height="83.4"/> <ellipse transform="matrix(-.1641 .9864 -.9864 -.1641 2942.3 -777.66)" cx="1800.6" cy="857.8" rx="28.6" ry="19.6"/> </g> <g fill="#B13981"> <rect transform="matrix(.7722 .6353 -.6353 .7722 829.05 -921.47)" x="1688.9" y="653.8" width="21.7" height="83.4"/> <ellipse transform="matrix(.7722 .6353 -.6353 .7722 814.61 -945.65)" cx="1726.2" cy="663.3" rx="28.6" ry="19.6"/> </g> <circle cx="1591.1" cy="826.4" r="151.6" fill="#9B509F"/> <circle cx="1544.2" cy="801.1" r="21.5" fill="#A53272"/> <ellipse transform="matrix(.9363 -.3511 .3511 .9363 -173.37 620.32)" cx="1623.9" cy="788.2" rx="18.3" ry="15.9" fill="#A53272"/> <ellipse transform="matrix(.9363 -.3511 .3511 .9363 -150.38 608.32)" cx="1602.3" cy="718.9" rx="14.1" ry="12.4" fill="#A53272"/> <ellipse transform="matrix(.9363 -.3511 .3511 .9363 -163.91 584.6)" cx="1530.1" cy="744.3" rx="20.2" ry="16.3" fill="#A53272"/> <circle cx="1513.4" cy="883.1" r="23" fill="#A53272"/> <circle cx="1466.4" cy="789.2" r="11" fill="#A53272"/> <circle cx="1484.1" cy="823.6" r="23.4" fill="#A53272"/> <circle cx="1598" cy="844.9" r="16.4" fill="#A53272"/> <circle cx="1676.8" cy="832.8" r="17" fill="#A53272"/> <circle cx="1663.8" cy="749.6" r="22.1" fill="#A53272"/> <circle cx="1581.5" cy="762.2" r="12.2" fill="#A53272"/> <ellipse transform="matrix(.9363 -.3511 .3511 .9363 -148.22 594.93)" cx="1566.5" cy="706.2" rx="15" ry="10.7" fill="#A53272"/> <ellipse transform="matrix(.9363 -.3511 .3511 .9363 -152.29 581.86)" cx="1528.4" cy="710.9" rx="10.1" ry="5.5" fill="#A53272"/> <ellipse transform="matrix(.9363 -.3511 .3511 .9363 -170.07 571.89)" cx="1492" cy="754.9" rx="11.2" ry="7.4" fill="#A53272"/> <ellipse transform="matrix(.9363 -.3511 .3511 .9363 -179.26 578.82)" cx="1506.5" cy="783.7" rx="5.5" ry="6.1" fill="#A53272"/> <ellipse transform="matrix(.9363 -.3511 .3511 .9363 -203.75 602.24)" cx="1558.8" cy="863" rx="8" ry="6" fill="#A53272"/> <ellipse transform="matrix(.9363 -.3511 .3511 .9363 -216.06 605.19)" cx="1560.8" cy="898.4" rx="10.6" ry="10.8" fill="#A53272"/> <ellipse transform="matrix(.9363 -.3511 .3511 .9363 -212.61 629.09)" cx="1628.5" cy="900.8" rx="16.9" ry="13.1" fill="#A53272"/> <ellipse transform="matrix(.9363 -.3511 .3511 .9363 -196.59 631.52)" cx="1643.2" cy="857.9" rx="6.4" ry="9" fill="#A53272"/> <ellipse transform="matrix(.9363 -.3511 .3511 .9363 -169.25 649.19)" cx="1705.6" cy="791.3" rx="12" ry="15.6" fill="#A53272"/> <ellipse transform="matrix(.9363 -.3511 .3511 .9363 -196.96 650.01)" cx="1694" cy="868.1" rx="16.8" ry="7.6" fill="#A53272"/> <ellipse transform="matrix(.9363 -.3511 .3511 .9363 -142.62 620.83)" cx="1640.7" cy="703.7" rx="11.5" ry="13.1" fill="#A53272"/> <ellipse transform="matrix(.9363 -.3511 .3511 .9363 -156.04 645.42)" cx="1701.8" cy="753" rx="5.6" ry="5.7" fill="#A53272"/> <ellipse transform="matrix(.9363 -.3511 .3511 .9363 -173.08 637.71)" cx="1672" cy="796.1" rx="5.9" ry="5.5" fill="#A53272"/> <ellipse transform="matrix(.9363 -.3511 .3511 .9363 -183.23 627.82)" cx="1639.6" cy="819.2" rx="10.3" ry="8.8" fill="#A53272"/> <ellipse transform="matrix(.9363 -.3511 .3511 .9363 -180.51 609.81)" cx="1591.3" cy="802.7" rx="10.6" ry="7.7" fill="#A53272"/> <ellipse transform="matrix(.9363 -.3511 .3511 .9363 -230.38 601.64)" cx="1543.9" cy="936.1" rx="15" ry="9.8" fill="#A53272"/> <ellipse transform="matrix(.9363 -.3511 .3511 .9363 -223.72 623.36)" cx="1607.1" cy="928.6" rx="7.4" ry="11" fill="#A53272"/> <ellipse transform="matrix(.9363 -.3511 .3511 .9363 -230.97 616.88)" cx="1585.6" cy="945.4" rx="11.9" ry="8.2" fill="#A53272"/> <ellipse transform="matrix(.9363 -.3511 .3511 .9363 -223.43 637.51)" cx="1646.3" cy="934.9" rx="12.2" ry="8.6" fill="#A53272"/> <ellipse transform="matrix(.9363 -.3511 .3511 .9363 -211.13 649.7)" cx="1686" cy="907.1" rx="12.3" ry="5.9" fill="#A53272"/> <circle cx="1666.3" cy="890.2" r="7.4" fill="#A53272"/> <circle cx="1606.3" cy="872.8" r="9.3" fill="#A53272"/> <circle cx="1594.3" cy="894.6" r="7.4" fill="#A53272"/> <circle cx="1504.9" cy="926" r="6.9" fill="#A53272"/> <circle cx="1472.5" cy="871" r="10.4" fill="#A53272"/> <circle cx="1535.6" cy="845.8" r="8.9" fill="#A53272"/> <circle cx="1621.3" cy="749.2" r="11.3" fill="#A53272"/> <circle cx="1723.7" cy="827.7" r="6.6" fill="#A53272"/> <circle cx="1725.3" cy="850.7" r="4.8" fill="#A53272"/> <circle cx="1709.1" cy="838.9" r="7.1" fill="#A53272"/> <circle cx="1711" cy="891.4" r="7" fill="#A53272"/> <circle cx="1680" cy="938.1" r="6.2" fill="#A53272"/> <circle cx="1621.7" cy="959.9" r="6.2" fill="#A53272"/> <circle cx="1566.1" cy="965.2" r="6.7" fill="#A53272"/> <ellipse transform="matrix(-.9363 .3511 -.3511 -.9363 3349.8 771.76)" cx="1604.9" cy="689.6" rx="8.4" ry="6.9" fill="#A53272"/> <g fill="#98453D"> <rect transform="matrix(-.9363 .3511 -.3511 -.9363 1089.3 1763.3)" x="374" y="938.7" width="21.7" height="83.4"/> <ellipse transform="matrix(-.9363 .3511 -.3511 -.9363 1131.4 1833.8)" cx="399.4" cy="1019.5" rx="28.6" ry="19.6"/> </g> <g fill="#8D382F"> <rect transform="matrix(-.6353 .7722 -.7722 -.6353 1445.4 1165.4)" x="440.6" y="897.3" width="13.8" height="53.3"/> <ellipse transform="matrix(-.6353 .7722 -.7722 -.6353 1492.1 1177.2)" cx="468.1" cy="940.9" rx="18.2" ry="12.5"/> </g> <g fill="#8D382F"> <rect transform="matrix(.3511 .9363 -.9363 .3511 1025.7 56.647)" x="465.1" y="741.7" width="13.8" height="53.3"/> <ellipse transform="matrix(.3511 .9363 -.9363 .3511 1033.2 27.217)" cx="496.9" cy="759" rx="18.2" ry="12.5"/> </g> <g fill="#8D382F"> <rect transform="matrix(.9864 .1641 -.1641 .9864 114.59 -48.274)" x="342.5" y="642.7" width="13.8" height="53.3"/> <ellipse transform="matrix(.9864 .1641 -.1641 .9864 110.34 -49.348)" cx="353.8" cy="643.1" rx="18.2" ry="12.5"/> </g> <g fill="#8D382F"> <rect transform="matrix(.6353 -.7722 .7722 .6353 -486.82 421.09)" x="195.5" y="699.4" width="13.8" height="53.3"/> <ellipse transform="matrix(.6353 -.7722 .7722 .6353 -481.25 399.02)" cx="181.9" cy="709.1" rx="18.2" ry="12.5"/> </g> <g fill="#8D382F"> <rect transform="matrix(-.3511 -.9363 .9363 -.3511 -585.01 1357.8)" x="171.1" y="855" width="13.8" height="53.3"/> <ellipse transform="matrix(-.3511 -.9363 .9363 -.3511 -627.48 1347.1)" cx="153.1" cy="891" rx="18.2" ry="12.5"/> </g> <g fill="#8D382F"> <rect transform="matrix(-.9864 -.1641 .1641 -.9864 436.08 1997.3)" x="293.6" y="954" width="13.8" height="53.3"/> <ellipse transform="matrix(-.9864 -.1641 .1641 -.9864 423.08 2048.8)" cx="296.2" cy="1006.9" rx="18.2" ry="12.5"/> </g> <g fill="#98453D"> <rect transform="matrix(-.1641 .9864 -.9864 -.1641 1409.2 507.74)" x="478.6" y="809.2" width="21.7" height="83.4"/> <ellipse transform="matrix(-.1641 .9864 -.9864 -.1641 1463.8 475.12)" cx="530.6" cy="857.8" rx="28.6" ry="19.6"/> </g> <g fill="#98453D"> <rect transform="matrix(.7722 .6353 -.6353 .7722 539.77 -114.58)" x="418.9" y="653.8" width="21.7" height="83.4"/> <ellipse transform="matrix(.7722 .6353 -.6353 .7722 525.34 -138.76)" cx="456.2" cy="663.3" rx="28.6" ry="19.6"/> </g> <g fill="#98453D"> <rect transform="matrix(.9363 -.3511 .3511 .9363 -218.21 135.74)" x="254.4" y="627.9" width="21.7" height="83.4"/> <ellipse transform="matrix(.9363 -.3511 .3511 .9363 -205.43 128.12)" cx="250.6" cy="630.5" rx="28.6" ry="19.6"/> </g> <g fill="#98453D"> <rect transform="matrix(.1641 -.9864 .9864 .1641 -654.05 826.29)" x="149.7" y="757.4" width="21.7" height="83.4"/> <ellipse transform="matrix(.1641 -.9864 .9864 .1641 -681.7 779.97)" cx="119.4" cy="792.2" rx="28.6" ry="19.6"/> </g> <g fill="#98453D"> <rect transform="matrix(-.7722 -.6353 .6353 -.7722 -215.98 1831.5)" x="209.5" y="912.8" width="21.7" height="83.4"/> <ellipse transform="matrix(-.7722 -.6353 .6353 -.7722 -283.42 1871.8)" cx="193.8" cy="986.7" rx="28.6" ry="19.6"/> </g> <circle cx="328.9" cy="823.6" r="151.6" fill="#A35152"/> <circle cx="375.8" cy="848.9" r="21.5" fill="#943E34"/> <ellipse transform="matrix(-.9363 .3511 -.3511 -.9363 875.95 1564.7)" cx="296.1" cy="861.8" rx="18.3" ry="15.9" fill="#943E34"/> <ellipse transform="matrix(-.9363 .3511 -.3511 -.9363 942.09 1691.5)" cx="317.7" cy="931.1" rx="14.1" ry="12.4" fill="#943E34"/> <ellipse transform="matrix(-.9363 .3511 -.3511 -.9363 1073 1616.9)" cx="389.9" cy="905.7" rx="20.2" ry="16.3" fill="#943E34"/> <circle cx="406.6" cy="766.9" r="23" fill="#943E34"/> <circle cx="453.6" cy="860.8" r="11" fill="#943E34"/> <circle cx="435.9" cy="826.4" r="23.4" fill="#943E34"/> <circle cx="322" cy="805.1" r="16.4" fill="#943E34"/> <circle cx="243.2" cy="817.2" r="17" fill="#943E34"/> <circle cx="256.2" cy="900.4" r="22.1" fill="#943E34"/> <circle cx="338.5" cy="887.8" r="12.2" fill="#943E34"/> <ellipse transform="matrix(-.9363 .3511 -.3511 -.9363 1015.9 1703.4)" cx="353.5" cy="943.8" rx="15" ry="10.7" fill="#943E34"/> <ellipse transform="matrix(-.9363 .3511 -.3511 -.9363 1088.1 1680.9)" cx="391.6" cy="939.1" rx="10.1" ry="5.5" fill="#943E34"/> <ellipse transform="matrix(-.9363 .3511 -.3511 -.9363 1143 1582.9)" cx="428" cy="895.1" rx="11.2" ry="7.4" fill="#943E34"/> <ellipse transform="matrix(-.9363 .3511 -.3511 -.9363 1104.8 1532.2)" cx="413.5" cy="866.3" rx="5.5" ry="6.1" fill="#943E34"/> <ellipse transform="matrix(-.9363 .3511 -.3511 -.9363 975.64 1397.2)" cx="361.2" cy="787" rx="8" ry="6" fill="#943E34"/> <ellipse transform="matrix(-.9363 .3511 -.3511 -.9363 959.4 1329.3)" cx="359.2" cy="751.6" rx="10.6" ry="10.8" fill="#943E34"/> <ellipse transform="matrix(-.9363 .3511 -.3511 -.9363 827.55 1348.3)" cx="291.5" cy="749.2" rx="16.9" ry="13.1" fill="#943E34"/> <ellipse transform="matrix(-.9363 .3511 -.3511 -.9363 814.17 1436.6)" cx="276.8" cy="792.1" rx="6.4" ry="9" fill="#943E34"/> <ellipse transform="matrix(-.9363 .3511 -.3511 -.9363 716.72 1587.4)" cx="214.4" cy="858.7" rx="12" ry="15.6" fill="#943E34"/> <ellipse transform="matrix(-.9363 .3511 -.3511 -.9363 712.18 1434.6)" cx="226" cy="781.9" rx="16.8" ry="7.6" fill="#943E34"/> <ellipse transform="matrix(-.9363 .3511 -.3511 -.9363 873.11 1734.3)" cx="279.3" cy="946.3" rx="11.5" ry="13.1" fill="#943E34"/> <ellipse transform="matrix(-.9363 .3511 -.3511 -.9363 737.5 1660.3)" cx="218.2" cy="897" rx="5.6" ry="5.7" fill="#943E34"/> <ellipse transform="matrix(-.9363 .3511 -.3511 -.9363 780 1566.3)" cx="248" cy="853.9" rx="5.9" ry="5.5" fill="#943E34"/> <ellipse transform="matrix(-.9363 .3511 -.3511 -.9363 834.57 1510.3)" cx="280.4" cy="830.8" rx="10.3" ry="8.8" fill="#943E34"/> <ellipse transform="matrix(-.9363 .3511 -.3511 -.9363 933.9 1525.3)" cx="328.7" cy="847.3" rx="10.6" ry="7.7" fill="#943E34"/> <ellipse transform="matrix(-.9363 .3511 -.3511 -.9363 978.97 1250.3)" cx="376.1" cy="713.9" rx="15" ry="9.8" fill="#943E34"/> <ellipse transform="matrix(-.9363 .3511 -.3511 -.9363 859.19 1287)" cx="312.9" cy="721.4" rx="7.4" ry="11" fill="#943E34"/> <ellipse transform="matrix(-.9363 .3511 -.3511 -.9363 894.88 1247)" cx="334.4" cy="704.6" rx="11.9" ry="8.2" fill="#943E34"/> <ellipse transform="matrix(-.9363 .3511 -.3511 -.9363 781.14 1288.6)" cx="273.7" cy="715.1" rx="12.2" ry="8.6" fill="#943E34"/> <ellipse transform="matrix(-.9363 .3511 -.3511 -.9363 713.9 1356.4)" cx="234" cy="742.9" rx="12.3" ry="5.9" fill="#943E34"/> <circle cx="253.7" cy="759.8" r="7.4" fill="#943E34"/> <circle cx="313.7" cy="777.2" r="9.3" fill="#943E34"/> <circle cx="325.7" cy="755.4" r="7.4" fill="#943E34"/> <circle cx="415.1" cy="724" r="6.9" fill="#943E34"/> <circle cx="447.5" cy="779" r="10.4" fill="#943E34"/> <circle cx="384.4" cy="804.2" r="8.9" fill="#943E34"/> <circle cx="298.7" cy="900.8" r="11.3" fill="#943E34"/> <circle cx="196.3" cy="822.3" r="6.6" fill="#943E34"/> <circle cx="194.7" cy="799.3" r="4.8" fill="#943E34"/> <circle cx="210.9" cy="811.1" r="7.1" fill="#943E34"/> <circle cx="209" cy="758.6" r="7" fill="#943E34"/> <circle cx="240" cy="711.9" r="6.2" fill="#943E34"/> <circle cx="298.3" cy="690.1" r="6.2" fill="#943E34"/> <circle cx="353.9" cy="684.8" r="6.7" fill="#943E34"/> <ellipse transform="matrix(.9363 -.3511 .3511 .9363 -317.14 171.76)" cx="315.1" cy="960.4" rx="8.4" ry="6.9" fill="#943E34"/> <g fill="#B02024"> <rect transform="matrix(.9363 -.3511 .3511 .9363 -2.2379 326.86)" x="889.4" y="127.9" width="21.7" height="83.4"/> <ellipse transform="matrix(.9363 -.3511 .3511 .9363 10.544 319.23)" cx="885.6" cy="130.5" rx="28.6" ry="19.6"/> </g> <g fill="#951B1E"> <rect transform="matrix(.6353 -.7722 .7722 .6353 130.85 729.12)" x="830.5" y="199.4" width="13.8" height="53.3"/> <ellipse transform="matrix(.6353 -.7722 .7722 .6353 136.42 707.06)" cx="816.9" cy="209.1" rx="18.2" ry="12.5"/> </g> <g fill="#951B1E"> <rect transform="matrix(-.3511 -.9363 .9363 -.3511 741.11 1276.9)" x="806.1" y="355" width="13.8" height="53.3"/> <ellipse transform="matrix(-.3511 -.9363 .9363 -.3511 698.64 1266.1)" cx="788.1" cy="391" rx="18.2" ry="12.5"/> </g> <g fill="#951B1E"> <rect transform="matrix(-.9864 -.1641 .1641 -.9864 1779.5 1108.3)" x="928.6" y="454" width="13.8" height="53.3"/> <ellipse transform="matrix(-.9864 -.1641 .1641 -.9864 1766.5 1159.8)" cx="931.2" cy="506.9" rx="18.2" ry="12.5"/> </g> <g fill="#951B1E"> <rect transform="matrix(-.6353 .7722 -.7722 -.6353 2097.7 -142.6)" x="1075.6" y="397.3" width="13.8" height="53.3"/> <ellipse transform="matrix(-.6353 .7722 -.7722 -.6353 2144.5 -130.8)" cx="1103.1" cy="440.9" rx="18.2" ry="12.5"/> </g> <g fill="#951B1E"> <rect transform="matrix(.3511 .9363 -.9363 .3511 969.62 -862.38)" x="1100.1" y="241.7" width="13.8" height="53.3"/> <ellipse transform="matrix(.3511 .9363 -.9363 .3511 977.05 -891.81)" cx="1131.9" cy="259" rx="18.2" ry="12.5"/> </g> <g fill="#951B1E"> <rect transform="matrix(.9864 .1641 -.1641 .9864 41.145 -159.26)" x="977.5" y="142.7" width="13.8" height="53.3"/> <ellipse transform="matrix(.9864 .1641 -.1641 .9864 36.891 -160.34)" cx="988.8" cy="143.1" rx="18.2" ry="12.5"/> </g> <g fill="#B02024"> <rect transform="matrix(.1641 -.9864 .9864 .1641 369.96 1034.7)" x="784.7" y="257.4" width="21.7" height="83.4"/> <ellipse transform="matrix(.1641 -.9864 .9864 .1641 342.31 988.42)" cx="754.4" cy="292.2" rx="28.6" ry="19.6"/> </g> <g fill="#B02024"> <rect transform="matrix(-.7722 -.6353 .6353 -.7722 1227.1 1348.8)" x="844.5" y="412.8" width="21.7" height="83.4"/> <ellipse transform="matrix(-.7722 -.6353 .6353 -.7722 1159.6 1389.1)" cx="828.8" cy="486.7" rx="28.6" ry="19.6"/> </g> <g fill="#B02024"> <rect transform="matrix(-.9363 .3511 -.3511 -.9363 2143.3 572.18)" x="1009" y="438.7" width="21.7" height="83.4"/> <ellipse transform="matrix(-.9363 .3511 -.3511 -.9363 2185.4 642.67)" cx="1034.4" cy="519.5" rx="28.6" ry="19.6"/> </g> <g fill="#B02024"> <rect transform="matrix(-.1641 .9864 -.9864 -.1641 1655.2 -700.7)" x="1113.6" y="309.2" width="21.7" height="83.4"/> <ellipse transform="matrix(-.1641 .9864 -.9864 -.1641 1709.8 -733.33)" cx="1165.6" cy="357.8" rx="28.6" ry="19.6"/> </g> <g fill="#B02024"> <rect transform="matrix(.7722 .6353 -.6353 .7722 366.74 -631.91)" x="1053.9" y="153.8" width="21.7" height="83.4"/> <ellipse transform="matrix(.7722 .6353 -.6353 .7722 352.31 -656.09)" cx="1091.2" cy="163.3" rx="28.6" ry="19.6"/> </g> <circle cx="956.1" cy="326.4" r="151.6" fill="#EC2227"/> <circle cx="909.2" cy="301.1" r="21.5" fill="#A31E22"/> <ellipse transform="matrix(.9363 -.3511 .3511 .9363 -38.251 365.54)" cx="988.9" cy="288.2" rx="18.3" ry="15.9" fill="#A31E22"/> <ellipse transform="matrix(.9363 -.3511 .3511 .9363 -15.26 353.55)" cx="967.3" cy="218.9" rx="14.1" ry="12.4" fill="#A31E22"/> <ellipse transform="matrix(.9363 -.3511 .3511 .9363 -28.782 329.82)" cx="895.1" cy="244.3" rx="20.2" ry="16.3" fill="#A31E22"/> <circle cx="878.4" cy="383.1" r="23" fill="#A31E22"/> <circle cx="831.4" cy="289.2" r="11" fill="#A31E22"/> <circle cx="849.1" cy="323.6" r="23.4" fill="#A31E22"/> <circle cx="963" cy="344.9" r="16.4" fill="#A31E22"/> <circle cx="1041.8" cy="332.8" r="17" fill="#A31E22"/> <circle cx="1028.8" cy="249.6" r="22.1" fill="#A31E22"/> <circle cx="946.5" cy="262.2" r="12.2" fill="#A31E22"/> <ellipse transform="matrix(.9363 -.3511 .3511 .9363 -13.093 340.16)" cx="931.5" cy="206.2" rx="15" ry="10.7" fill="#A31E22"/> <ellipse transform="matrix(.9363 -.3511 .3511 .9363 -17.17 327.08)" cx="893.4" cy="210.9" rx="10.1" ry="5.5" fill="#A31E22"/> <ellipse transform="matrix(.9363 -.3511 .3511 .9363 -34.95 317.12)" cx="857" cy="254.9" rx="11.2" ry="7.4" fill="#A31E22"/> <ellipse transform="matrix(.9363 -.3511 .3511 .9363 -44.14 324.04)" cx="871.5" cy="283.7" rx="5.5" ry="6.1" fill="#A31E22"/> <ellipse transform="matrix(.9363 -.3511 .3511 .9363 -68.622 347.47)" cx="923.8" cy="363" rx="8" ry="6" fill="#A31E22"/> <ellipse transform="matrix(.9363 -.3511 .3511 .9363 -80.936 350.41)" cx="925.8" cy="398.4" rx="10.6" ry="10.8" fill="#A31E22"/> <ellipse transform="matrix(.9363 -.3511 .3511 .9363 -77.487 374.32)" cx="993.5" cy="400.8" rx="16.9" ry="13.1" fill="#A31E22"/> <ellipse transform="matrix(.9363 -.3511 .3511 .9363 -61.47 376.74)" cx="1008.2" cy="357.9" rx="6.4" ry="9" fill="#A31E22"/> <ellipse transform="matrix(.9363 -.3511 .3511 .9363 -34.122 394.41)" cx="1070.6" cy="291.3" rx="12" ry="15.6" fill="#A31E22"/> <ellipse transform="matrix(.9363 -.3511 .3511 .9363 -61.842 395.23)" cx="1059" cy="368.1" rx="16.8" ry="7.6" fill="#A31E22"/> <ellipse transform="matrix(.9363 -.3511 .3511 .9363 -7.4999 366.06)" cx="1005.7" cy="203.7" rx="11.5" ry="13.1" fill="#A31E22"/> <ellipse transform="matrix(.9363 -.3511 .3511 .9363 -20.918 390.64)" cx="1066.8" cy="253" rx="5.6" ry="5.7" fill="#A31E22"/> <ellipse transform="matrix(.9363 -.3511 .3511 .9363 -37.953 382.94)" cx="1037" cy="296.1" rx="5.9" ry="5.5" fill="#A31E22"/> <ellipse transform="matrix(.9363 -.3511 .3511 .9363 -48.105 373.04)" cx="1004.6" cy="319.2" rx="10.3" ry="8.8" fill="#A31E22"/> <ellipse transform="matrix(.9363 -.3511 .3511 .9363 -45.391 355.03)" cx="956.3" cy="302.7" rx="10.6" ry="7.7" fill="#A31E22"/> <ellipse transform="matrix(.9363 -.3511 .3511 .9363 -95.257 346.86)" cx="908.9" cy="436.1" rx="15" ry="9.8" fill="#A31E22"/> <ellipse transform="matrix(.9363 -.3511 .3511 .9363 -88.595 368.58)" cx="972.1" cy="428.6" rx="7.4" ry="11" fill="#A31E22"/> <ellipse transform="matrix(.9363 -.3511 .3511 .9363 -95.847 362.11)" cx="950.6" cy="445.4" rx="11.9" ry="8.2" fill="#A31E22"/> <ellipse transform="matrix(.9363 -.3511 .3511 .9363 -88.308 382.73)" cx="1011.3" cy="434.9" rx="12.2" ry="8.6" fill="#A31E22"/> <ellipse transform="matrix(.9363 -.3511 .3511 .9363 -76.009 394.92)" cx="1051" cy="407.1" rx="12.3" ry="5.9" fill="#A31E22"/> <circle cx="1031.3" cy="390.2" r="7.4" fill="#A31E22"/> <circle cx="971.3" cy="372.8" r="9.3" fill="#A31E22"/> <circle cx="959.3" cy="394.6" r="7.4" fill="#A31E22"/> <circle cx="869.9" cy="426" r="6.9" fill="#A31E22"/> <circle cx="837.5" cy="371" r="10.4" fill="#A31E22"/> <circle cx="900.6" cy="345.8" r="8.9" fill="#A31E22"/> <circle cx="986.3" cy="249.2" r="11.3" fill="#A31E22"/> <circle cx="1088.7" cy="327.7" r="6.6" fill="#A31E22"/> <circle cx="1090.3" cy="350.7" r="4.8" fill="#A31E22"/> <circle cx="1074.1" cy="338.9" r="7.1" fill="#A31E22"/> <circle cx="1076" cy="391.4" r="7" fill="#A31E22"/> <circle cx="1045" cy="438.1" r="6.2" fill="#A31E22"/> <circle cx="986.7" cy="459.9" r="6.2" fill="#A31E22"/> <circle cx="931.1" cy="465.2" r="6.7" fill="#A31E22"/> <ellipse transform="matrix(-.9363 .3511 -.3511 -.9363 1944.7 26.537)" cx="969.9" cy="189.6" rx="8.4" ry="6.9" fill="#A31E22"/> <g fill="#38B04A"> <rect transform="matrix(.3511 .9363 -.9363 .3511 1384.2 -1466.9)" x="1739.6" y="223.5" width="21.7" height="83.4"/> <ellipse transform="matrix(.3511 .9363 -.9363 .3511 1395.8 -1512.9)" cx="1789.5" cy="250.6" rx="28.6" ry="19.6"/> </g> <g fill="#2E9546"> <rect transform="matrix(.7722 .6353 -.6353 .7722 514.48 -1030.2)" x="1687.1" y="175.8" width="13.8" height="53.3"/> <ellipse transform="matrix(.7722 .6353 -.6353 .7722 505.26 -1045.6)" cx="1710.9" cy="181.9" rx="18.2" ry="12.5"/> </g> <g fill="#2E9546"> <rect transform="matrix(.9363 -.3511 .3511 .9363 35.438 551.45)" x="1531.5" y="151.4" width="13.8" height="53.3"/> <ellipse transform="matrix(.9363 -.3511 .3511 .9363 43.602 546.57)" cx="1529" cy="153.1" rx="18.2" ry="12.5"/> </g> <g fill="#2E9546"> <rect transform="matrix(.1641 -.9864 .9864 .1641 906.69 1671.1)" x="1432.5" y="273.9" width="13.8" height="53.3"/> <ellipse transform="matrix(.1641 -.9864 .9864 .1641 889.04 1641.5)" cx="1413.1" cy="296.2" rx="18.2" ry="12.5"/> </g> <g fill="#2E9546"> <rect transform="matrix(-.7722 -.6353 .6353 -.7722 2366.9 1743.6)" x="1489.1" y="420.9" width="13.8" height="53.3"/> <ellipse transform="matrix(-.7722 -.6353 .6353 -.7722 2323.9 1769.3)" cx="1479.1" cy="468.1" rx="18.2" ry="12.5"/> </g> <g fill="#2E9546"> <rect transform="matrix(-.9363 .3511 -.3511 -.9363 3363.8 334.07)" x="1644.7" y="445.4" width="13.8" height="53.3"/> <ellipse transform="matrix(-.9363 .3511 -.3511 -.9363 3390.7 379.1)" cx="1661" cy="496.9" rx="18.2" ry="12.5"/> </g> <g fill="#2E9546"> <rect transform="matrix(-.1641 .9864 -.9864 -.1641 2382.6 -1320.1)" x="1743.7" y="322.8" width="13.8" height="53.3"/> <ellipse transform="matrix(-.1641 .9864 -.9864 -.1641 2417.5 -1340.9)" cx="1776.9" cy="353.8" rx="18.2" ry="12.5"/> </g> <g fill="#38B04A"> <rect transform="matrix(.9864 .1641 -.1641 .9864 48.322 -263.84)" x="1610.1" y="118.8" width="21.7" height="83.4"/> <ellipse transform="matrix(.9864 .1641 -.1641 .9864 41.661 -265.52)" cx="1627.8" cy="119.4" rx="28.6" ry="19.6"/> </g> <g fill="#38B04A"> <rect transform="matrix(.6353 -.7722 .7722 .6353 364.28 1212.1)" x="1454.7" y="178.6" width="21.7" height="83.4"/> <ellipse transform="matrix(.6353 -.7722 .7722 .6353 373 1177.5)" cx="1433.3" cy="193.8" rx="28.6" ry="19.6"/> </g> <g fill="#38B04A"> <rect transform="matrix(-.3511 -.9363 .9363 -.3511 1584.8 1867.8)" x="1428.8" y="343.1" width="21.7" height="83.4"/> <ellipse transform="matrix(-.3511 -.9363 .9363 -.3511 1518.3 1851)" cx="1400.5" cy="399.4" rx="28.6" ry="19.6"/> </g> <g fill="#38B04A"> <rect transform="matrix(-.9864 -.1641 .1641 -.9864 3036.5 1229.8)" x="1558.2" y="447.8" width="21.7" height="83.4"/> <ellipse transform="matrix(-.9864 -.1641 .1641 -.9864 3016.2 1310.4)" cx="1562.2" cy="530.6" rx="28.6" ry="19.6"/> </g> <g fill="#38B04A"> <rect transform="matrix(-.6353 .7722 -.7722 -.6353 3151.9 -628.99)" x="1713.6" y="388" width="21.7" height="83.4"/> <ellipse transform="matrix(-.6353 .7722 -.7722 -.6353 3225.1 -610.52)" cx="1756.7" cy="456.2" rx="28.6" ry="19.6"/> </g> <circle cx="1593.6" cy="321.1" r="151.6" fill="#6BBD45"/> <circle cx="1618.9" cy="274.2" r="21.5" fill="#32A448"/> <ellipse transform="matrix(.3511 .9363 -.9363 .3511 1390.2 -1298.2)" cx="1631.8" cy="353.9" rx="18.3" ry="15.9" fill="#32A448"/> <ellipse transform="matrix(.3511 .9363 -.9363 .3511 1415 -1377.2)" cx="1701.1" cy="332.3" rx="14.1" ry="12.4" fill="#32A448"/> <ellipse transform="matrix(.3511 .9363 -.9363 .3511 1330.9 -1400.3)" cx="1675.7" cy="260.1" rx="20.2" ry="16.3" fill="#32A448"/> <circle cx="1536.9" cy="243.4" r="23" fill="#32A448"/> <circle cx="1630.8" cy="196.4" r="11" fill="#32A448"/> <circle cx="1596.4" cy="214.1" r="23.4" fill="#32A448"/> <circle cx="1575.1" cy="328" r="16.4" fill="#32A448"/> <circle cx="1587.2" cy="406.8" r="17" fill="#32A448"/> <circle cx="1670.4" cy="393.8" r="22.1" fill="#32A448"/> <circle cx="1657.8" cy="311.5" r="12.2" fill="#32A448"/> <ellipse transform="matrix(.3511 .9363 -.9363 .3511 1389.7 -1412.3)" cx="1713.8" cy="296.5" rx="15" ry="10.7" fill="#32A448"/> <ellipse transform="matrix(.3511 .9363 -.9363 .3511 1351 -1432.7)" cx="1709.1" cy="258.4" rx="10.1" ry="5.5" fill="#32A448"/> <ellipse transform="matrix(.3511 .9363 -.9363 .3511 1288.3 -1415)" cx="1665.1" cy="222" rx="11.2" ry="7.4" fill="#32A448"/> <ellipse transform="matrix(.3511 .9363 -.9363 .3511 1283.2 -1378.6)" cx="1636.3" cy="236.5" rx="5.5" ry="6.1" fill="#32A448"/> <ellipse transform="matrix(.3511 .9363 -.9363 .3511 1280.8 -1270.5)" cx="1557" cy="288.8" rx="8" ry="6" fill="#32A448"/> <ellipse transform="matrix(.3511 .9363 -.9363 .3511 1259.7 -1236)" cx="1521.6" cy="290.8" rx="10.6" ry="10.8" fill="#32A448"/> <ellipse transform="matrix(.3511 .9363 -.9363 .3511 1321.4 -1189.8)" cx="1519.2" cy="358.5" rx="16.9" ry="13.1" fill="#32A448"/> <ellipse transform="matrix(.3511 .9363 -.9363 .3511 1363.1 -1220.5)" cx="1562.1" cy="373.2" rx="6.4" ry="9" fill="#32A448"/> <ellipse transform="matrix(.3511 .9363 -.9363 .3511 1464.7 -1242.4)" cx="1628.7" cy="435.6" rx="12" ry="15.6" fill="#32A448"/> <ellipse transform="matrix(.3511 .9363 -.9363 .3511 1404 -1177.9)" cx="1551.9" cy="424" rx="16.8" ry="7.6" fill="#32A448"/> <ellipse transform="matrix(.3511 .9363 -.9363 .3511 1460.8 -1366.5)" cx="1716.3" cy="370.7" rx="11.5" ry="13.1" fill="#32A448"/> <ellipse transform="matrix(.3511 .9363 -.9363 .3511 1486 -1280.7)" cx="1667" cy="431.8" rx="5.6" ry="5.7" fill="#32A448"/> <ellipse transform="matrix(.3511 .9363 -.9363 .3511 1430.1 -1259.6)" cx="1623.9" cy="402" rx="5.9" ry="5.5" fill="#32A448"/> <ellipse transform="matrix(.3511 .9363 -.9363 .3511 1384.9 -1259.1)" cx="1600.8" cy="369.6" rx="10.3" ry="8.8" fill="#32A448"/> <ellipse transform="matrix(.3511 .9363 -.9363 .3511 1350.4 -1305.8)" cx="1617.3" cy="321.3" rx="10.6" ry="7.7" fill="#32A448"/> <ellipse transform="matrix(.3511 .9363 -.9363 .3511 1219.3 -1211.7)" cx="1483.9" cy="273.9" rx="15" ry="9.8" fill="#32A448"/> <ellipse transform="matrix(.3511 .9363 -.9363 .3511 1283.4 -1177.7)" cx="1491.4" cy="337.1" rx="7.4" ry="11" fill="#32A448"/> <ellipse transform="matrix(.3511 .9363 -.9363 .3511 1252.4 -1176)" cx="1474.6" cy="315.6" rx="11.9" ry="8.2" fill="#32A448"/> <ellipse transform="matrix(.3511 .9363 -.9363 .3511 1316 -1146.4)" cx="1485.1" cy="376.3" rx="12.2" ry="8.6" fill="#32A448"/> <ellipse transform="matrix(.3511 .9363 -.9363 .3511 1371.3 -1146.7)" cx="1512.9" cy="416" rx="12.3" ry="5.9" fill="#32A448"/> <circle cx="1529.8" cy="396.3" r="7.4" fill="#32A448"/> <circle cx="1547.2" cy="336.3" r="9.3" fill="#32A448"/> <circle cx="1525.4" cy="324.3" r="7.4" fill="#32A448"/> <circle cx="1494" cy="234.9" r="6.9" fill="#32A448"/> <circle cx="1549" cy="202.5" r="10.4" fill="#32A448"/> <circle cx="1574.2" cy="265.6" r="8.9" fill="#32A448"/> <circle cx="1670.8" cy="351.3" r="11.3" fill="#32A448"/> <circle cx="1592.3" cy="453.7" r="6.6" fill="#32A448"/> <circle cx="1569.3" cy="455.3" r="4.8" fill="#32A448"/> <circle cx="1581.1" cy="439.1" r="7.1" fill="#32A448"/> <circle cx="1528.6" cy="441" r="7" fill="#32A448"/> <circle cx="1481.9" cy="410" r="6.2" fill="#32A448"/> <circle cx="1460.1" cy="351.7" r="6.2" fill="#32A448"/> <circle cx="1454.8" cy="296.1" r="6.7" fill="#32A448"/> <ellipse transform="matrix(-.3511 -.9363 .9363 -.3511 2024.4 2072.8)" cx="1730.4" cy="334.9" rx="8.4" ry="6.9" fill="#32A448"/> <g fill="#473D98"> <rect transform="matrix(.9104 .4138 -.4138 .9104 106.73 -146.98)" x="381.8" y="131.1" width="21.7" height="83.4"/> <ellipse transform="matrix(.9104 .4138 -.4138 .9104 92.556 -157.53)" cx="409.9" cy="134.9" rx="28.6" ry="19.6"/> </g> <g fill="#3A2F8C"> <rect transform="matrix(.9953 -.09679 .09679 .9953 -14.847 30.635)" x="301.4" y="141.7" width="13.8" height="53.3"/> <ellipse transform="matrix(.9953 -.09679 .09679 .9953 -12.292 30.261)" cx="305.8" cy="141.8" rx="18.2" ry="12.5"/> </g> <g fill="#3A2F8C"> <rect transform="matrix(.4138 -.9104 .9104 .4138 -131.59 317.83)" x="174.1" y="234.5" width="13.8" height="53.3"/> <ellipse transform="matrix(.4138 -.9104 .9104 .4138 -135.77 289.29)" cx="156.8" cy="250.1" rx="18.2" ry="12.5"/> </g> <g fill="#3A2F8C"> <rect transform="matrix(-.5815 -.8136 .8136 -.5815 -27.259 821.47)" x="190.8" y="391.1" width="13.8" height="53.3"/> <ellipse transform="matrix(-.5815 -.8136 .8136 -.5815 -74.145 828.34)" cx="176" cy="433.2" rx="18.2" ry="12.5"/> </g> <g fill="#3A2F8C"> <rect transform="matrix(-.9953 .09679 -.09679 -.9953 728.32 927.96)" x="334.7" y="455" width="13.8" height="53.3"/> <ellipse transform="matrix(-.9953 .09679 -.09679 -.9953 736.03 980.63)" cx="344.2" cy="508.2" rx="18.2" ry="12.5"/> </g> <g fill="#3A2F8C"> <rect transform="matrix(-.4138 .9104 -.9104 -.4138 1017.1 122.9)" x="462.1" y="362.3" width="13.8" height="53.3"/> <ellipse transform="matrix(-.4138 .9104 -.9104 -.4138 1061.4 116.4)" cx="493.2" cy="399.9" rx="18.2" ry="12.5"/> </g> <g fill="#3A2F8C"> <rect transform="matrix(.5815 .8136 -.8136 .5815 378.27 -270.8)" x="445.4" y="205.6" width="13.8" height="53.3"/> <ellipse transform="matrix(.5815 .8136 -.8136 .5815 374.73 -294.92)" cx="474" cy="216.8" rx="18.2" ry="12.5"/> </g> <g fill="#473D98"> <rect transform="matrix(.8136 -.5815 .5815 .8136 -68.366 167.51)" x="216.2" y="148.6" width="21.7" height="83.4"/> <ellipse transform="matrix(.8136 -.5815 .5815 .8136 -53.154 147.07)" cx="202.8" cy="156.4" rx="28.6" ry="19.6"/> </g> <g fill="#473D98"> <rect transform="matrix(-.09679 -.9953 .9953 -.09679 -166.06 534.35)" x="148.6" y="300.8" width="21.7" height="83.4"/> <ellipse transform="matrix(-.09679 -.9953 .9953 -.09679 -215.62 497.45)" cx="117.9" cy="346.6" rx="28.6" ry="19.6"/> </g> <g fill="#473D98"> <rect transform="matrix(-.9104 -.4138 .4138 -.9104 294.24 1018)" x="246.6" y="435.4" width="21.7" height="83.4"/> <ellipse transform="matrix(-.9104 -.4138 .4138 -.9104 245.54 1083.5)" cx="240.1" cy="515.1" rx="28.6" ry="19.6"/> </g> <g fill="#473D98"> <rect transform="matrix(-.8136 .5815 -.5815 -.8136 1034.3 587.63)" x="412.1" y="417.9" width="21.7" height="83.4"/> <ellipse transform="matrix(-.8136 .5815 -.5815 -.8136 1098.1 635.08)" cx="447.2" cy="493.6" rx="28.6" ry="19.6"/> </g> <g fill="#473D98"> <rect transform="matrix(.09679 .9953 -.9953 .09679 749.13 -210.56)" x="479.7" y="265.8" width="21.7" height="83.4"/> <ellipse transform="matrix(.09679 .9953 -.9953 .09679 782.61 -255.53)" cx="532.1" cy="303.4" rx="28.6" ry="19.6"/> </g> <circle cx="321.2" cy="323.3" r="151.6" fill="#5152A3"/> <circle cx="306" cy="272.2" r="21.5" fill="#413494"/> <ellipse transform="matrix(.9104 .4138 -.4138 .9104 165.49 -125.06)" cx="371.4" cy="319.4" rx="18.3" ry="15.9" fill="#413494"/> <ellipse transform="matrix(.9104 .4138 -.4138 .9104 141.9 -144.82)" cx="405.2" cy="255.1" rx="14.1" ry="12.4" fill="#413494"/> <ellipse transform="matrix(.9104 .4138 -.4138 .9104 122.02 -119.22)" cx="336.2" cy="222" rx="20.2" ry="16.3" fill="#413494"/> <circle cx="226.2" cy="308.4" r="23" fill="#413494"/> <circle cx="259.4" cy="208.7" r="11" fill="#413494"/> <circle cx="247.6" cy="245.6" r="23.4" fill="#413494"/> <circle cx="313.1" cy="341.2" r="16.4" fill="#413494"/> <circle cx="377.3" cy="388.4" r="17" fill="#413494"/> <circle cx="426.9" cy="320.4" r="22.1" fill="#413494"/> <circle cx="359.9" cy="271" r="12.2" fill="#413494"/> <ellipse transform="matrix(.9104 .4138 -.4138 .9104 126.23 -141.12)" cx="388.8" cy="220.8" rx="15" ry="10.7" fill="#413494"/> <ellipse transform="matrix(.9104 .4138 -.4138 .9104 113.75 -130.71)" cx="358.6" cy="197.2" rx="10.1" ry="5.5" fill="#413494"/> <ellipse transform="matrix(.9104 .4138 -.4138 .9104 110.9 -106.69)" cx="301.7" cy="202.6" rx="11.2" ry="7.4" fill="#413494"/> <ellipse transform="matrix(.9104 .4138 -.4138 .9104 122.67 -99.762)" cx="291.6" cy="233.2" rx="5.5" ry="6.1" fill="#413494"/> <ellipse transform="matrix(.9104 .4138 -.4138 .9104 159.46 -83.558)" cx="272.6" cy="326.3" rx="8" ry="6" fill="#413494"/> <ellipse transform="matrix(.9104 .4138 -.4138 .9104 168.28 -71.395)" cx="248.9" cy="352.7" rx="10.6" ry="10.8" fill="#413494"/> <ellipse transform="matrix(.9104 .4138 -.4138 .9104 192.93 -86.033)" cx="295" cy="402.3" rx="16.9" ry="13.1" fill="#413494"/> <ellipse transform="matrix(.9104 .4138 -.4138 .9104 188.31 -104.69)" cx="335.8" cy="382.3" rx="6.4" ry="9" fill="#413494"/> <ellipse transform="matrix(.9104 .4138 -.4138 .9104 195.26 -142.7)" cx="427" cy="379.3" rx="12" ry="15.6" fill="#413494"/> <ellipse transform="matrix(.9104 .4138 -.4138 .9104 208.75 -112.68)" cx="364.5" cy="425.5" rx="16.8" ry="7.6" fill="#413494"/> <ellipse transform="matrix(.9104 .4138 -.4138 .9104 152.09 -159.01)" cx="443.1" cy="271.5" rx="11.5" ry="13.1" fill="#413494"/> <ellipse transform="matrix(.9104 .4138 -.4138 .9104 185.14 -155.47)" cx="451.4" cy="349.6" rx="5.6" ry="5.7" fill="#413494"/> <ellipse transform="matrix(.9104 .4138 -.4138 .9104 184.42 -133.29)" cx="399.9" cy="359" rx="5.9" ry="5.5" fill="#413494"/> <ellipse transform="matrix(.9104 .4138 -.4138 .9104 178.19 -117.67)" cx="360.7" cy="352.4" rx="10.3" ry="8.8" fill="#413494"/> <ellipse transform="matrix(.9104 .4138 -.4138 .9104 157.21 -112.46)" cx="338.2" cy="306.6" rx="10.6" ry="7.7" fill="#413494"/> <ellipse transform="matrix(.9104 .4138 -.4138 .9104 170.89 -54.082)" cx="210.3" cy="367.4" rx="15" ry="9.8" fill="#413494"/> <ellipse transform="matrix(.9104 .4138 -.4138 .9104 191.68 -71.249)" cx="260.3" cy="406.8" rx="7.4" ry="11" fill="#413494"/> <ellipse transform="matrix(.9104 .4138 -.4138 .9104 187.88 -60.36)" cx="233.3" cy="403.5" rx="11.9" ry="8.2" fill="#413494"/> <ellipse transform="matrix(.9104 .4138 -.4138 .9104 207.07 -77.99)" cx="283.5" cy="438.9" rx="12.2" ry="8.6" fill="#413494"/> <ellipse transform="matrix(.9104 .4138 -.4138 .9104 214.85 -97.01)" cx="331.3" cy="447.4" rx="12.3" ry="5.9" fill="#413494"/> <circle cx="329.3" cy="421.5" r="7.4" fill="#413494"/> <circle cx="299.2" cy="366.8" r="9.3" fill="#413494"/> <circle cx="275.3" cy="373.8" r="7.4" fill="#413494"/> <circle cx="189.9" cy="332.7" r="6.9" fill="#413494"/> <circle cx="205.9" cy="270.8" r="10.4" fill="#413494"/> <circle cx="268.3" cy="297.7" r="8.9" fill="#413494"/> <circle cx="397.2" cy="290" r="11.3" fill="#413494"/> <circle cx="414.2" cy="417.9" r="6.6" fill="#413494"/> <circle cx="399" cy="435.3" r="4.8" fill="#413494"/> <circle cx="395.9" cy="415.5" r="7.1" fill="#413494"/> <circle cx="360.1" cy="454" r="7" fill="#413494"/> <circle cx="305.2" cy="465.1" r="6.2" fill="#413494"/> <circle cx="248.5" cy="439.3" r="6.2" fill="#413494"/> <circle cx="205.4" cy="403.7" r="6.7" fill="#413494"/> <ellipse transform="matrix(-.9104 -.4138 .4138 -.9104 719.45 628.38)" cx="427.8" cy="236.3" rx="8.4" ry="6.9" fill="#413494"/> </svg>